PathFileType	4	(X/Y/Z)	C:/Users/opensim2020/Desktop/walking_exp_matlab/subject01_walking12_straight_01.trc																																																																																																																																		
DataRate	CameraRate	NumFrames	NumMarkers	Units	OrigDataRate	OrigDataStartFrame	OrigNumFrames																																																																																																																														
100	100	4	44	mm	100	787	193																																																																																																																														
Frame#	Time	LFHD			RFHD			LBHD			RBHD			C7			T10			CLAV			STRN			RBAK			LSHO			LUPA			LELB			LFRM			LWRA			LWRB			LFIN			RSHO			RUPA			RELB			RFRM			RWRA			RWRB			RFIN			LASI			RASI			LPSI			RPSI			LTHI			LKNE			LTIB			LANK			LHEE			LTOE			RTHI			RKNE			RTIB			RANK			RHEE			RTOE			*39			*40			*41			*42			*43		
		X1	Y1	Z1	X2	Y2	Z2	X3	Y3	Z3	X4	Y4	Z4	X5	Y5	Z5	X6	Y6	Z6	X7	Y7	Z7	X8	Y8	Z8	X9	Y9	Z9	X10	Y10	Z10	X11	Y11	Z11	X12	Y12	Z12	X13	Y13	Z13	X14	Y14	Z14	X15	Y15	Z15	X16	Y16	Z16	X17	Y17	Z17	X18	Y18	Z18	X19	Y19	Z19	X20	Y20	Z20	X21	Y21	Z21	X22	Y22	Z22	X23	Y23	Z23	X24	Y24	Z24	X25	Y25	Z25	X26	Y26	Z26	X27	Y27	Z27	X28	Y28	Z28	X29	Y29	Z29	X30	Y30	Z30	X31	Y31	Z31	X32	Y32	Z32	X33	Y33	Z33	X34	Y34	Z34	X35	Y35	Z35	X36	Y36	Z36	X37	Y37	Z37	X38	Y38	Z38	X39	Y39	Z39	X40	Y40	Z40	X41	Y41	Z41	X42	Y42	Z42	X43	Y43	Z43	X44	Y44	Z44
																																																																																																																																					
169	1.68	681.76923	1663.57397	-1072.22375	684.74829	1668.62659	-957.48419	567.38788	1614.32471	-1075.80884	567.61096	1618.10364	-954.40204	529.82153	1423.74805	-1031.50696	490.34995	1130.78796	-1025.35889	672.1217	1353.16895	-1024.61572	713.6142	1198.32568	-1025.7395	470.1286	1230.75342	-951.77252	618.46564	1382.81335	-1188.76038	567.31171	1200.97839	-1270.39783	530.67572	1055.94019	-1263.36462	545.15735	943.18799	-1284.86597	595.83783	812.84833	-1263.59485	541.11133	820.80505	-1287.90845	568.12933	738.88623	-1291.8844	603.95746	1383.12866	-876.47162	576.46326	1185.40051	-764.43781	604.88116	1061.0343	-750.09027	685.07422	965.22198	-731.88037	802.74689	897.66302	-772.03534	771.42371	878.74597	-727.28839	840.56183	832.2337	-735.25836	677.86877	923.8609	-1115.94592	648.09607	921.43707	-899.47076	486.83133	933.32941	-1093.68176	468.26205	942.47961	-952.03369	734.49896	611.57086	-1188.70239	764.68622	484.06018	-1166.8772	778.1662	298.48312	-1184.48413	837.31903	81.04939	-1139.89673	802.77765	37.19895	-1087.93604	985.7962	90.74847	-1130.54883	523.37109	599.15466	-864.5589	493.71893	440.08707	-894.57294	380.36746	302.95691	-903.50244	283.522	121.78094	-963.93243	227.83878	107.91821	-1018.66138	400.02115	36.62076	-968.81763	673.20947	1701.62195	-980.85126	1973.11047	1023.32074	-3101.91772	2012.44739	1021.95721	-3140.68384	NaN	NaN	NaN	NaN	NaN	NaN
170	1.69	692.48145	1662.61523	-1072.90527	695.01556	1667.83411	-958.38123	578.3244	1612.85205	-1077.08997	578.18646	1616.72498	-955.65887	541.34924	1422.3678	-1032.83228	502.76178	1129.37512	-1026.29089	683.8078	1352.24463	-1025.58777	725.75134	1197.51147	-1026.42798	481.81424	1229.44153	-952.96631	630.21942	1381.57092	-1190.03223	579.36096	1199.6073	-1271.44299	543.10797	1054.63672	-1264.74963	557.77637	941.75787	-1285.82031	608.13684	811.45209	-1263.77234	553.77783	819.32068	-1288.57019	580.6875	737.42462	-1292.13428	615.23846	1382.04956	-877.61731	586.54382	1184.51733	-765.48291	614.58246	1060.14648	-750.86243	694.56348	964.09839	-732.44275	812.3634	896.40149	-772.34778	780.87079	877.66113	-727.29718	849.86115	830.776	-735.44934	691.11731	923.21655	-1116.33569	660.46643	920.18854	-899.8548	499.84512	932.30658	-1094.53528	480.85669	941.19409	-952.85645	749.86829	611.72699	-1185.83472	778.3371	483.33334	-1164.71948	787.86389	296.26157	-1182.56958	842.25562	78.13061	-1137.80945	805.64862	36.92927	-1086.99329	990.94373	84.64046	-1127.30554	535.16803	598.12793	-864.52655	504.65375	438.79477	-893.90558	388.12793	304.36047	-902.72168	287.32605	125.30825	-962.42114	230.90054	113.32961	-1017.26221	400.4537	36.61039	-968.57019	683.40637	1700.72742	-981.95874	1973.16699	1023.52655	-3101.87598	2012.50708	1022.0899	-3140.65576	NaN	NaN	NaN	NaN	NaN	NaN
171	1.7	703.06879	1661.63513	-1073.85291	705.21991	1666.95715	-959.37048	589.20007	1611.23584	-1078.36304	588.61499	1615.12463	-957.03064	552.77283	1420.9137	-1034.35156	515.38916	1127.81152	-1027.36011	695.55847	1351.26245	-1026.71606	738.08008	1196.70117	-1027.16943	493.61661	1228.04907	-954.11554	642.08716	1380.29944	-1191.24707	591.56244	1198.24634	-1272.64258	555.77057	1053.18103	-1266.06677	570.77051	940.33087	-1286.87366	620.92389	810.0755	-1264.04138	566.7995	817.86768	-1289.48743	593.84497	735.99188	-1292.55212	626.51514	1380.95239	-878.99554	596.84973	1183.84875	-766.69409	624.1192	1059.30457	-751.68713	703.67792	962.87952	-733.03271	820.97845	894.68555	-772.61536	789.46606	875.97565	-728.02435	858.62091	829.01178	-735.74695	704.5531	922.56006	-1116.76196	673.0542	918.83624	-900.3056	513.0332	931.18439	-1095.35229	493.68246	939.7915	-953.98016	764.65771	611.45789	-1182.61877	791.92908	482.29913	-1162.71777	797.28888	293.77277	-1180.7124	845.60663	75.52646	-1135.89819	807.45972	37.3567	-1086.00891	995.28473	75.74438	-1122.94153	547.58783	596.84351	-864.60834	516.64447	437.54666	-893.01392	396.46396	306.10989	-901.95105	290.78586	129.47607	-961.37323	234.59839	119.2412	-1016.14508	400.91565	36.60902	-968.53046	693.49005	1699.77209	-982.96179	1973.02881	1023.43066	-3102.02148	2012.54907	1021.96027	-3140.70776	NaN	NaN	NaN	NaN	NaN	NaN
172	1.71	713.60663	1660.94287	-1074.87207	715.23413	1666.23035	-960.23047	600.09772	1609.6626	-1079.81982	599.01007	1613.51453	-958.46991	564.07581	1419.58936	-1036.08118	528.12988	1126.19702	-1028.42444	707.3222	1350.30371	-1027.91687	750.52777	1196.01526	-1027.98523	505.61438	1226.67639	-955.58301	654.12329	1379.12183	-1192.6958	603.97095	1196.84656	-1273.90515	568.76947	1051.78052	-1267.50952	584.10901	938.77863	-1287.88501	634.16846	808.66962	-1264.31812	580.31689	816.34949	-1290.26831	607.54938	734.54462	-1293.0249	637.78412	1379.94397	-880.40161	606.78607	1182.89465	-767.8631	633.50177	1058.30383	-752.69305	712.61237	961.53613	-733.65216	829.72656	892.78552	-772.95032	798.28253	874.29224	-728.22528	866.96606	826.90363	-736.03882	717.72656	921.91943	-1117.04553	686.25006	917.75128	-900.71851	526.13397	930.03705	-1096.5116	506.52533	938.36743	-954.80536	778.66357	610.61127	-1179.22852	805.15735	480.96841	-1161.68604	806.46606	291.64719	-1177.97668	850.37598	74.71354	-1134.81812	809.6806	38.95561	-1086.255	1000.25519	65.49653	-1119.27478	560.74988	595.51703	-864.51764	529.14337	436.01868	-892.1626	405.23413	307.88065	-901.2818	295.36133	133.61848	-960.09247	239.17747	125.67878	-1014.87921	401.56857	36.62424	-968.04358	703.34155	1698.84888	-983.90546	1973.09595	1023.29419	-3101.90649	2012.45581	1021.935	-3140.68042	NaN	NaN	NaN	NaN	NaN	NaN
